<svg width="107" height="48" viewBox="0 0 107 48" fill="none" xmlns="http://www.w3.org/2000/svg">
<path d="M2.21951 3.14146H11.4902C13.3911 3.14146 15.0244 3.42602 16.3902 3.99512C17.7675 4.56423 18.826 5.4065 19.5659 6.52195C20.3057 7.6374 20.6756 9.00894 20.6756 10.6366C20.6756 11.9683 20.448 13.1122 19.9927 14.0683C19.5488 15.013 18.9171 15.8041 18.0976 16.4415C17.2894 17.0675 16.339 17.5683 15.2463 17.9439L13.6244 18.7976H5.56585L5.53171 14.8024H11.5244C12.4236 14.8024 13.1691 14.6431 13.761 14.3244C14.3528 14.0057 14.7967 13.5618 15.0927 12.9927C15.4 12.4236 15.5537 11.7634 15.5537 11.0122C15.5537 10.2154 15.4057 9.52683 15.1098 8.94634C14.8138 8.36585 14.3642 7.92195 13.761 7.61463C13.1577 7.30732 12.4008 7.15366 11.4902 7.15366H7.34146V28H2.21951V3.14146ZM16.1171 28L10.4488 16.9195L15.861 16.8854L21.5976 27.761V28H16.1171ZM32.8146 28.3415C31.3805 28.3415 30.0943 28.1138 28.9561 27.6585C27.8179 27.1919 26.8504 26.5488 26.0537 25.7293C25.2683 24.9098 24.665 23.9593 24.2439 22.878C23.8228 21.7854 23.6122 20.6244 23.6122 19.3951V18.7122C23.6122 17.3122 23.8114 16.0317 24.2098 14.8707C24.6081 13.7098 25.1772 12.7024 25.9171 11.8488C26.6683 10.9951 27.5789 10.3406 28.6488 9.88537C29.7187 9.4187 30.9252 9.18537 32.2683 9.18537C33.5772 9.18537 34.7382 9.40163 35.7512 9.83415C36.7642 10.2667 37.6122 10.8813 38.2951 11.678C38.9894 12.4748 39.513 13.4309 39.8659 14.5463C40.2187 15.6504 40.3951 16.8797 40.3951 18.2341V20.2829H25.7122V17.0049H35.5634V16.6293C35.5634 15.9463 35.4382 15.3374 35.1878 14.8024C34.9488 14.2561 34.5846 13.8236 34.0951 13.5049C33.6057 13.1862 32.9797 13.0268 32.2171 13.0268C31.5683 13.0268 31.0106 13.1691 30.5439 13.4537C30.0772 13.7382 29.6959 14.1366 29.4 14.6488C29.1154 15.161 28.8992 15.7642 28.7512 16.4585C28.6146 17.1415 28.5463 17.8927 28.5463 18.7122V19.3951C28.5463 20.135 28.6488 20.8179 28.8537 21.4439C29.0699 22.0699 29.3715 22.6106 29.7585 23.0659C30.1569 23.5211 30.635 23.874 31.1927 24.1244C31.7618 24.3748 32.4049 24.5 33.122 24.5C34.0098 24.5 34.835 24.3293 35.5976 23.9878C36.3715 23.635 37.0374 23.1057 37.5951 22.4L39.9854 24.9951C39.5984 25.5528 39.0691 26.0878 38.3976 26.6C37.7374 27.1122 36.9407 27.5333 36.0073 27.8634C35.074 28.1821 34.0098 28.3415 32.8146 28.3415ZM54.1049 23.9707V1.77561H59.0561V28H54.6L54.1049 23.9707ZM42.4268 18.9854V18.6268C42.4268 17.2154 42.5862 15.935 42.9049 14.7854C43.2236 13.6244 43.6902 12.6285 44.3049 11.7976C44.9195 10.9667 45.6764 10.3236 46.5756 9.86829C47.4748 9.41301 48.4992 9.18537 49.6488 9.18537C50.7301 9.18537 51.6748 9.41301 52.4829 9.86829C53.3024 10.3236 53.9967 10.9724 54.5659 11.8146C55.1463 12.6455 55.613 13.6301 55.9659 14.7683C56.3187 15.8951 56.5748 17.1301 56.7341 18.4732V19.2585C56.5748 20.5447 56.3187 21.7398 55.9659 22.8439C55.613 23.948 55.1463 24.9154 54.5659 25.7463C53.9967 26.5659 53.3024 27.2033 52.4829 27.6585C51.6634 28.1138 50.7073 28.3415 49.6146 28.3415C48.465 28.3415 47.4407 28.1081 46.5415 27.6415C45.6537 27.1748 44.9024 26.5203 44.2878 25.678C43.6846 24.8358 43.2236 23.8455 42.9049 22.7073C42.5862 21.5691 42.4268 20.3285 42.4268 18.9854ZM47.3439 18.6268V18.9854C47.3439 19.748 47.4008 20.4593 47.5146 21.1195C47.6398 21.7797 47.839 22.3659 48.1122 22.878C48.3967 23.3789 48.761 23.7715 49.2049 24.0561C49.6602 24.3293 50.2122 24.4659 50.861 24.4659C51.7033 24.4659 52.3976 24.278 52.9439 23.9024C53.4902 23.5154 53.9057 22.9862 54.1902 22.3146C54.4862 21.6431 54.6569 20.8691 54.7024 19.9927V17.7561C54.6683 17.039 54.5659 16.3959 54.3951 15.8268C54.2358 15.2463 53.9967 14.7512 53.6781 14.3415C53.3707 13.9317 52.9837 13.613 52.5171 13.3854C52.0618 13.1577 51.5211 13.0439 50.8951 13.0439C50.2577 13.0439 49.7114 13.1919 49.2561 13.4878C48.8008 13.7724 48.4309 14.165 48.1463 14.6659C47.8732 15.1667 47.6683 15.7585 47.5317 16.4415C47.4065 17.113 47.3439 17.8415 47.3439 18.6268Z" fill="#D00000"/>
<path d="M76.9317 3.14146H82.0366V19.5659C82.0366 21.478 81.6268 23.0886 80.8073 24.3976C79.9992 25.7065 78.8781 26.6911 77.4439 27.3512C76.0211 28.0114 74.3821 28.3415 72.5268 28.3415C70.6715 28.3415 69.0211 28.0114 67.5756 27.3512C66.1415 26.6911 65.0146 25.7065 64.1951 24.3976C63.387 23.0886 62.9829 21.478 62.9829 19.5659V3.14146H68.1049V19.5659C68.1049 20.6813 68.2813 21.5919 68.6341 22.2976C68.987 23.0033 69.4935 23.5211 70.1537 23.8512C70.8252 24.1813 71.6163 24.3463 72.5268 24.3463C73.4602 24.3463 74.2512 24.1813 74.9 23.8512C75.5602 23.5211 76.061 23.0033 76.4024 22.2976C76.7553 21.5919 76.9317 20.6813 76.9317 19.5659V3.14146ZM90.4707 3.14146L95.1488 11.8146L99.8268 3.14146H105.683L98.461 15.4683L105.871 28H99.9634L95.1488 19.1561L90.3341 28H84.3927L91.8195 15.4683L84.5805 3.14146H90.4707Z" fill="#161616"/>
<path d="M1.44224 34.9471H2.63309V43.4367L2.53065 44.7812H1.44224V34.9471ZM7.31328 41.2599V41.3944C7.31328 41.898 7.25352 42.3654 7.13401 42.7965C7.0145 43.2233 6.8395 43.5947 6.60901 43.9105C6.37852 44.2264 6.09681 44.4718 5.76389 44.6468C5.43096 44.8218 5.04895 44.9093 4.61785 44.9093C4.17822 44.9093 3.79193 44.8346 3.45901 44.6852C3.13035 44.5316 2.85291 44.3117 2.62669 44.0258C2.40047 43.7398 2.21907 43.3941 2.08248 42.9886C1.95017 42.5831 1.8584 42.1264 1.80718 41.6184V41.0294C1.8584 40.5172 1.95017 40.0584 2.08248 39.6529C2.21907 39.2474 2.40047 38.9017 2.62669 38.6157C2.85291 38.3255 3.13035 38.1056 3.45901 37.9563C3.78767 37.8026 4.16968 37.7258 4.60504 37.7258C5.04041 37.7258 5.42669 37.8111 5.76389 37.9819C6.10108 38.1483 6.38279 38.3873 6.60901 38.6989C6.8395 39.0105 7.0145 39.384 7.13401 39.8194C7.25352 40.2505 7.31328 40.7306 7.31328 41.2599ZM6.12242 41.3944V41.2599C6.12242 40.9142 6.09041 40.5898 6.02639 40.2867C5.96236 39.9794 5.85992 39.7105 5.71907 39.48C5.57822 39.2453 5.39254 39.0617 5.16206 38.9294C4.93157 38.7928 4.64773 38.7245 4.31053 38.7245C4.01175 38.7245 3.75139 38.7758 3.52943 38.8782C3.31175 38.9806 3.12608 39.1194 2.97242 39.2944C2.81876 39.4651 2.69285 39.6614 2.59468 39.8834C2.50078 40.1011 2.43035 40.3273 2.3834 40.562V42.105C2.45169 42.4038 2.56267 42.6919 2.71633 42.9694C2.87425 43.2425 3.0834 43.4666 3.34376 43.6416C3.6084 43.8166 3.93492 43.9041 4.32334 43.9041C4.64346 43.9041 4.91663 43.8401 5.14285 43.712C5.37334 43.5797 5.55901 43.3983 5.69986 43.1678C5.84498 42.9373 5.95169 42.6706 6.01998 42.3675C6.08828 42.0645 6.12242 41.7401 6.12242 41.3944ZM8.49773 41.3944V41.2471C8.49773 40.7477 8.57029 40.2846 8.71541 39.8578C8.86053 39.4267 9.06968 39.0532 9.34285 38.7373C9.61602 38.4172 9.94681 38.1697 10.3352 37.9947C10.7236 37.8154 11.159 37.7258 11.6413 37.7258C12.1279 37.7258 12.5654 37.8154 12.9538 37.9947C13.3465 38.1697 13.6794 38.4172 13.9526 38.7373C14.23 39.0532 14.4413 39.4267 14.5864 39.8578C14.7316 40.2846 14.8041 40.7477 14.8041 41.2471V41.3944C14.8041 41.8938 14.7316 42.3569 14.5864 42.7837C14.4413 43.2105 14.23 43.584 13.9526 43.9041C13.6794 44.22 13.3486 44.4675 12.9602 44.6468C12.5761 44.8218 12.1407 44.9093 11.6541 44.9093C11.1675 44.9093 10.73 44.8218 10.3416 44.6468C9.95322 44.4675 9.62029 44.22 9.34285 43.9041C9.06968 43.584 8.86053 43.2105 8.71541 42.7837C8.57029 42.3569 8.49773 41.8938 8.49773 41.3944ZM9.68218 41.2471V41.3944C9.68218 41.7401 9.72273 42.0666 9.80383 42.3739C9.88492 42.677 10.0066 42.9459 10.1688 43.1806C10.3352 43.4154 10.5422 43.6011 10.7898 43.7377C11.0374 43.87 11.3255 43.9361 11.6541 43.9361C11.9785 43.9361 12.2624 43.87 12.5057 43.7377C12.7532 43.6011 12.9581 43.4154 13.1203 43.1806C13.2825 42.9459 13.4041 42.677 13.4852 42.3739C13.5706 42.0666 13.6133 41.7401 13.6133 41.3944V41.2471C13.6133 40.9056 13.5706 40.5834 13.4852 40.2803C13.4041 39.973 13.2803 39.702 13.1139 39.4672C12.9517 39.2282 12.7468 39.0404 12.4993 38.9038C12.256 38.7672 11.97 38.6989 11.6413 38.6989C11.3169 38.6989 11.031 38.7672 10.7834 38.9038C10.5401 39.0404 10.3352 39.2282 10.1688 39.4672C10.0066 39.702 9.88492 39.973 9.80383 40.2803C9.72273 40.5834 9.68218 40.9056 9.68218 41.2471ZM15.9758 41.3944V41.2471C15.9758 40.7477 16.0483 40.2846 16.1935 39.8578C16.3386 39.4267 16.5477 39.0532 16.8209 38.7373C17.0941 38.4172 17.4249 38.1697 17.8133 37.9947C18.2017 37.8154 18.6371 37.7258 19.1194 37.7258C19.606 37.7258 20.0435 37.8154 20.4319 37.9947C20.8246 38.1697 21.1575 38.4172 21.4307 38.7373C21.7081 39.0532 21.9194 39.4267 22.0645 39.8578C22.2096 40.2846 22.2822 40.7477 22.2822 41.2471V41.3944C22.2822 41.8938 22.2096 42.3569 22.0645 42.7837C21.9194 43.2105 21.7081 43.584 21.4307 43.9041C21.1575 44.22 20.8267 44.4675 20.4383 44.6468C20.0541 44.8218 19.6188 44.9093 19.1322 44.9093C18.6456 44.9093 18.2081 44.8218 17.8197 44.6468C17.4313 44.4675 17.0983 44.22 16.8209 43.9041C16.5477 43.584 16.3386 43.2105 16.1935 42.7837C16.0483 42.3569 15.9758 41.8938 15.9758 41.3944ZM17.1602 41.2471V41.3944C17.1602 41.7401 17.2008 42.0666 17.2819 42.3739C17.363 42.677 17.4846 42.9459 17.6468 43.1806C17.8133 43.4154 18.0203 43.6011 18.2678 43.7377C18.5154 43.87 18.8035 43.9361 19.1322 43.9361C19.4566 43.9361 19.7404 43.87 19.9837 43.7377C20.2313 43.6011 20.4361 43.4154 20.5983 43.1806C20.7605 42.9459 20.8822 42.677 20.9633 42.3739C21.0486 42.0666 21.0913 41.7401 21.0913 41.3944V41.2471C21.0913 40.9056 21.0486 40.5834 20.9633 40.2803C20.8822 39.973 20.7584 39.702 20.5919 39.4672C20.4297 39.2282 20.2249 39.0404 19.9773 38.9038C19.734 38.7672 19.448 38.6989 19.1194 38.6989C18.795 38.6989 18.509 38.7672 18.2614 38.9038C18.0182 39.0404 17.8133 39.2282 17.6468 39.4672C17.4846 39.702 17.363 39.973 17.2819 40.2803C17.2008 40.5834 17.1602 40.9056 17.1602 41.2471ZM26.6679 37.8538V38.763H22.9224V37.8538H26.6679ZM24.1901 36.17H25.3746V43.0654C25.3746 43.3002 25.4108 43.4773 25.4834 43.5968C25.556 43.7163 25.6499 43.7953 25.7651 43.8337C25.8804 43.8721 26.0041 43.8913 26.1364 43.8913C26.2346 43.8913 26.3371 43.8828 26.4438 43.8657C26.5547 43.8444 26.638 43.8273 26.6935 43.8145L26.6999 44.7812C26.606 44.8111 26.4822 44.8389 26.3285 44.8645C26.1791 44.8944 25.9977 44.9093 25.7843 44.9093C25.4941 44.9093 25.2273 44.8517 24.984 44.7364C24.7407 44.6212 24.5465 44.4291 24.4014 44.1602C24.2605 43.887 24.1901 43.52 24.1901 43.059V36.17ZM30.8294 43.9361C31.1111 43.9361 31.3715 43.8785 31.6105 43.7633C31.8496 43.648 32.0459 43.4901 32.1996 43.2895C32.3532 43.0846 32.4407 42.852 32.4621 42.5916H33.5889C33.5675 43.0014 33.4288 43.3834 33.1727 43.7377C32.9209 44.0877 32.5901 44.3715 32.1803 44.5892C31.7706 44.8026 31.3203 44.9093 30.8294 44.9093C30.3087 44.9093 29.8541 44.8175 29.4657 44.634C29.0816 44.4505 28.7614 44.1986 28.5053 43.8785C28.2535 43.5584 28.0636 43.1913 27.9355 42.7773C27.8118 42.359 27.7499 41.9172 27.7499 41.452V41.1831C27.7499 40.7178 27.8118 40.2782 27.9355 39.8642C28.0636 39.4459 28.2535 39.0767 28.5053 38.7566C28.7614 38.4364 29.0816 38.1846 29.4657 38.0011C29.8541 37.8175 30.3087 37.7258 30.8294 37.7258C31.3715 37.7258 31.8453 37.8367 32.2508 38.0587C32.6563 38.2764 32.9743 38.5752 33.2047 38.955C33.4395 39.3306 33.5675 39.7575 33.5889 40.2355H32.4621C32.4407 39.9495 32.3596 39.6913 32.2188 39.4608C32.0822 39.2303 31.8944 39.0468 31.6553 38.9102C31.4206 38.7694 31.1453 38.6989 30.8294 38.6989C30.4666 38.6989 30.1614 38.7715 29.9139 38.9166C29.6706 39.0575 29.4764 39.2495 29.3313 39.4928C29.1904 39.7319 29.088 39.9986 29.0239 40.2931C28.9642 40.5834 28.9343 40.88 28.9343 41.1831V41.452C28.9343 41.755 28.9642 42.0538 29.0239 42.3483C29.0837 42.6428 29.184 42.9096 29.3249 43.1486C29.47 43.3877 29.6642 43.5797 29.9075 43.7248C30.155 43.8657 30.4624 43.9361 30.8294 43.9361ZM39.0053 43.5968V40.0306C39.0053 39.7575 38.9499 39.5206 38.8389 39.32C38.7322 39.1151 38.57 38.9572 38.3523 38.8462C38.1346 38.7352 37.8657 38.6797 37.5456 38.6797C37.2468 38.6797 36.9843 38.7309 36.7581 38.8334C36.5361 38.9358 36.3611 39.0703 36.2331 39.2367C36.1093 39.4032 36.0474 39.5825 36.0474 39.7745H34.863C34.863 39.527 34.927 39.2816 35.055 39.0383C35.1831 38.795 35.3666 38.5752 35.6057 38.3788C35.8489 38.1782 36.1392 38.0203 36.4764 37.905C36.8178 37.7855 37.1977 37.7258 37.616 37.7258C38.1197 37.7258 38.5636 37.8111 38.9477 37.9819C39.3361 38.1526 39.6392 38.4108 39.8569 38.7566C40.0788 39.098 40.1898 39.527 40.1898 40.0434V43.2703C40.1898 43.5008 40.209 43.7462 40.2474 44.0066C40.2901 44.2669 40.352 44.491 40.4331 44.6788V44.7812H39.1974C39.1377 44.6447 39.0907 44.4633 39.0566 44.237C39.0224 44.0066 39.0053 43.7931 39.0053 43.5968ZM39.2102 40.5813L39.223 41.4136H38.0258C37.6886 41.4136 37.3877 41.4413 37.123 41.4968C36.8584 41.548 36.6364 41.627 36.4572 41.7337C36.2779 41.8404 36.1413 41.9748 36.0474 42.137C35.9535 42.295 35.9066 42.4806 35.9066 42.6941C35.9066 42.9117 35.9557 43.1102 36.0538 43.2895C36.152 43.4688 36.2993 43.6117 36.4956 43.7184C36.6962 43.8209 36.9416 43.8721 37.2319 43.8721C37.5947 43.8721 37.9148 43.7953 38.1922 43.6416C38.4697 43.488 38.6895 43.3002 38.8517 43.0782C39.0182 42.8563 39.1078 42.6407 39.1206 42.4316L39.6264 43.0014C39.5965 43.1806 39.5154 43.3791 39.3831 43.5968C39.2508 43.8145 39.0736 44.0236 38.8517 44.2242C38.634 44.4206 38.3736 44.5849 38.0706 44.7172C37.7718 44.8453 37.4346 44.9093 37.059 44.9093C36.5895 44.9093 36.1776 44.8175 35.8233 44.634C35.4733 44.4505 35.2002 44.205 35.0038 43.8977C34.8118 43.5861 34.7157 43.2383 34.7157 42.8541C34.7157 42.4828 34.7883 42.1563 34.9334 41.8745C35.0785 41.5886 35.2877 41.3517 35.5608 41.1639C35.834 40.9718 36.1627 40.8267 36.5468 40.7285C36.931 40.6303 37.3599 40.5813 37.8337 40.5813H39.2102ZM43.231 39.2303V44.7812H42.0401V37.8538H43.1669L43.231 39.2303ZM42.9877 41.055L42.4371 41.0358C42.4413 40.562 42.5032 40.1245 42.6227 39.7233C42.7422 39.3178 42.9194 38.9657 43.1541 38.6669C43.3889 38.3681 43.6813 38.1377 44.0313 37.9755C44.3813 37.809 44.7868 37.7258 45.2477 37.7258C45.5721 37.7258 45.8709 37.7727 46.1441 37.8666C46.4172 37.9563 46.6541 38.0992 46.8547 38.2956C47.0553 38.4919 47.2111 38.7438 47.3221 39.0511C47.4331 39.3584 47.4886 39.7297 47.4886 40.1651V44.7812H46.3041V40.2227C46.3041 39.8599 46.2422 39.5697 46.1185 39.352C45.9989 39.1343 45.8282 38.9764 45.6063 38.8782C45.3843 38.7758 45.1239 38.7245 44.8252 38.7245C44.4752 38.7245 44.1828 38.7864 43.948 38.9102C43.7133 39.034 43.5255 39.2047 43.3846 39.4224C43.2438 39.6401 43.1413 39.8898 43.0773 40.1715C43.0175 40.4489 42.9877 40.7434 42.9877 41.055ZM47.4758 40.402L46.6819 40.6453C46.6861 40.2654 46.748 39.9005 46.8675 39.5505C46.9913 39.2005 47.1685 38.8889 47.3989 38.6157C47.6337 38.3425 47.9218 38.127 48.2633 37.9691C48.6047 37.8069 48.9953 37.7258 49.4349 37.7258C49.8063 37.7258 50.1349 37.7748 50.4209 37.873C50.7111 37.9712 50.9544 38.1227 51.1508 38.3276C51.3514 38.5282 51.5029 38.7864 51.6053 39.1023C51.7078 39.4181 51.759 39.7938 51.759 40.2291V44.7812H50.5682V40.2163C50.5682 39.8279 50.5063 39.527 50.3825 39.3136C50.263 39.0959 50.0922 38.9444 49.8703 38.859C49.6526 38.7694 49.3922 38.7245 49.0892 38.7245C48.8288 38.7245 48.5983 38.7694 48.3977 38.859C48.1971 38.9486 48.0285 39.0724 47.8919 39.2303C47.7553 39.384 47.6508 39.5611 47.5782 39.7617C47.5099 39.9623 47.4758 40.1758 47.4758 40.402ZM54.7361 39.1855V47.4447H53.5453V37.8538H54.6337L54.7361 39.1855ZM59.4035 41.2599V41.3944C59.4035 41.898 59.3438 42.3654 59.2243 42.7965C59.1047 43.2233 58.9297 43.5947 58.6993 43.9105C58.473 44.2264 58.1935 44.4718 57.8605 44.6468C57.5276 44.8218 57.1456 44.9093 56.7145 44.9093C56.2749 44.9093 55.8864 44.8367 55.5493 44.6916C55.2121 44.5465 54.9261 44.3352 54.6913 44.0578C54.4566 43.7803 54.2688 43.4474 54.1279 43.059C53.9913 42.6706 53.8974 42.2331 53.8462 41.7465V41.0294C53.8974 40.5172 53.9935 40.0584 54.1343 39.6529C54.2752 39.2474 54.4608 38.9017 54.6913 38.6157C54.9261 38.3255 55.2099 38.1056 55.5429 37.9563C55.8758 37.8026 56.2599 37.7258 56.6953 37.7258C57.1307 37.7258 57.5169 37.8111 57.8541 37.9819C58.1913 38.1483 58.4752 38.3873 58.7057 38.6989C58.9361 39.0105 59.109 39.384 59.2243 39.8194C59.3438 40.2505 59.4035 40.7306 59.4035 41.2599ZM58.2127 41.3944V41.2599C58.2127 40.9142 58.1764 40.5898 58.1038 40.2867C58.0313 39.9794 57.9182 39.7105 57.7645 39.48C57.6151 39.2453 57.423 39.0617 57.1883 38.9294C56.9535 38.7928 56.6739 38.7245 56.3496 38.7245C56.0508 38.7245 55.7904 38.7758 55.5685 38.8782C55.3508 38.9806 55.1651 39.1194 55.0114 39.2944C54.8578 39.4651 54.7319 39.6614 54.6337 39.8834C54.5398 40.1011 54.4694 40.3273 54.4224 40.562V42.2203C54.5078 42.5191 54.6273 42.8008 54.781 43.0654C54.9346 43.3258 55.1395 43.537 55.3956 43.6992C55.6517 43.8572 55.9739 43.9361 56.3624 43.9361C56.6825 43.9361 56.9578 43.87 57.1883 43.7377C57.423 43.6011 57.6151 43.4154 57.7645 43.1806C57.9182 42.9459 58.0313 42.677 58.1038 42.3739C58.1764 42.0666 58.2127 41.7401 58.2127 41.3944Z" fill="#161616"/>
</svg>
