<svg width="124" height="124" viewBox="0 0 124 124" fill="none" xmlns="http://www.w3.org/2000/svg">
<rect width="124" height="124" fill="white"/>
<path d="M85.3104 19.4526H73.86L67.4295 13.98C64.3356 11.3501 59.8464 11.3349 56.7525 13.9648L50.2765 19.4526H39.0991C33.9881 19.4526 29.8477 23.6178 29.8477 28.7256V36.752L15.7886 48.6549C15.7735 48.6701 15.7583 48.7005 15.728 48.7157C15.6521 48.7765 15.5915 48.8525 15.5308 48.9285C15.4853 48.9741 15.455 49.0197 15.4095 49.0653C15.3488 49.1413 15.3033 49.2326 15.2578 49.3238C15.2275 49.3694 15.1972 49.415 15.182 49.4606C15.1365 49.567 15.1062 49.6734 15.0758 49.795C15.0607 49.8406 15.0455 49.871 15.0455 49.9166C15.0152 50.0686 15 50.2359 15 50.4031V96.6616C15 105.129 21.8703 112 30.3027 112H93.6973C102.145 112 109 105.114 109 96.6616V50.4031C109 50.2359 108.985 50.0838 108.954 49.9166C108.939 49.871 108.924 49.8406 108.924 49.795C108.894 49.6886 108.864 49.567 108.818 49.4606C108.803 49.415 108.773 49.3694 108.742 49.3238C108.697 49.2326 108.651 49.1413 108.591 49.0653C108.56 49.0197 108.515 48.9741 108.484 48.9285C108.424 48.8525 108.363 48.7765 108.287 48.7157C108.272 48.7005 108.257 48.6701 108.227 48.6549L94.9865 37.3753C94.8651 37.2689 94.1365 37.076 94 37V28.7256C93.9545 23.633 90.4214 19.4526 85.3104 19.4526ZM102.585 102.712L76.2562 79.3165L105 55V96.6616C105 98.8962 103.752 100.979 102.585 102.712ZM59.6796 17.446C61.0749 16.2603 63.092 16.2755 64.4873 17.446L66.838 19.4526H57.3136L59.6796 17.446ZM39.0991 24.0131H85.3104C87.9038 24.0131 90.0119 26.1261 90.0119 28.7256V61.6219L72.8135 76.261L67.8693 71.8678C64.5631 68.9338 59.5886 68.9338 56.2824 71.8526L51.2927 76.261L34 62V28.7256C34.0152 26.1261 36.5056 24.0131 39.0991 24.0131ZM21.4001 102.727C20.2172 100.994 19 99.2498 19 97V55L47.85 79.3165L21.4001 102.727ZM29.8477 42.7263V58.0799L20.7783 50.4031L29.8477 42.7263ZM30 108C27.9677 108 26.3595 106.862 24.7215 105.874L59.3004 75.2729C60.8929 73.8744 63.274 73.8744 64.8512 75.2729L99.2481 105.859C97.6254 106.847 95.7448 108 93.6973 108H30ZM103.207 50.4031L94 58V43L103.207 50.4031Z" fill="#242240"/>
</svg>
