<svg width="40" height="38" viewBox="0 0 40 38" fill="none" xmlns="http://www.w3.org/2000/svg">
<path d="M19.093 0.00563124C18.759 0.0327934 18.4478 0.181155 18.2213 0.42118C17.9949 0.661204 17.8698 0.975286 17.8709 1.30089V28.8792H2.69222C2.49933 28.8789 2.30866 28.9192 2.13337 28.9974C1.95809 29.0757 1.80236 29.1899 1.67693 29.3323C1.55151 29.4747 1.45937 29.6418 1.40689 29.8221C1.35441 30.0025 1.34283 30.1917 1.37294 30.3768C1.7999 32.98 2.8453 35.3882 4.35868 37.4468C4.48066 37.6163 4.64265 37.755 4.8311 37.8513C5.01956 37.9475 5.22899 37.9985 5.44188 38H31.5498C31.7627 37.9985 31.9721 37.9475 32.1605 37.8513C32.349 37.755 32.511 37.6163 32.633 37.4468C34.1463 35.3882 35.1917 32.98 35.6187 30.3768C35.6486 30.1929 35.6374 30.0047 35.5857 29.8254C35.534 29.646 35.4431 29.4795 35.3192 29.3374C35.1953 29.1952 35.0413 29.0807 34.8677 29.0016C34.6941 28.9226 34.505 28.8808 34.3133 28.8792H20.5372V27.3546H38.6739C38.9214 27.3533 39.1637 27.285 39.3737 27.1575C39.5836 27.03 39.7528 26.8482 39.8623 26.6325C39.9719 26.4168 40.0175 26.1757 39.994 25.9362C39.9705 25.6968 39.8788 25.4684 39.7293 25.2767L20.2734 0.504847C20.136 0.331587 19.9557 0.194941 19.7493 0.107649C19.5429 0.0203574 19.3171 -0.0147392 19.093 0.00563124ZM20.5372 5.11922L35.9798 24.764H20.5372V5.11922ZM14.899 8.50579C14.7072 8.50997 14.5186 8.55433 14.346 8.63582C14.1735 8.71732 14.021 8.83405 13.8992 8.97802L0.303632 25.2363C0.142455 25.4266 0.0405241 25.6577 0.00980838 25.9024C-0.0209073 26.1471 0.020867 26.3952 0.130226 26.6176C0.239585 26.84 0.41199 27.0275 0.627195 27.158C0.842401 27.2886 1.09147 27.3568 1.34517 27.3546H14.9407C15.2943 27.3545 15.6333 27.218 15.8834 26.9751C16.1334 26.7322 16.2738 26.4028 16.2739 26.0593V9.80105C16.2739 9.6275 16.2381 9.45571 16.1685 9.29587C16.0989 9.13603 15.997 8.99141 15.8687 8.87059C15.7405 8.74977 15.5886 8.65523 15.422 8.59256C15.2554 8.52989 15.0776 8.50039 14.899 8.50579ZM13.6075 13.4305V24.764H4.15038L13.6075 13.4305ZM4.44201 31.4697H32.5635C32.1624 32.88 31.5748 34.2112 30.7721 35.4095H6.21956C5.41713 34.2115 4.84296 32.8796 4.44201 31.4697Z" fill="white"/>
</svg>
