<svg width="37" height="34" viewBox="0 0 37 34" fill="none" xmlns="http://www.w3.org/2000/svg">
<path d="M9.0059 0C6.32011 0 4.11111 2.34676 4.11111 5.20351C4.11111 8.06025 6.32011 10.407 9.0059 10.407C11.6917 10.407 13.9007 8.06025 13.9007 5.20351C13.9007 2.34676 11.6917 0 9.0059 0ZM9.0059 2.61537C10.3607 2.61537 11.434 3.76245 11.434 5.20351C11.434 6.64456 10.3607 7.77802 9.0059 7.77802C7.65108 7.77802 6.57778 6.64456 6.57778 5.20351C6.57778 3.76245 7.65108 2.61537 9.0059 2.61537ZM27.9941 4.14101C25.3083 4.14101 23.0993 6.48777 23.0993 9.34452C23.0993 12.2013 25.3083 14.548 27.9941 14.548C30.6799 14.548 32.8889 12.2013 32.8889 9.34452C32.8889 6.48777 30.6799 4.14101 27.9941 4.14101ZM27.9941 6.77001C29.3489 6.77001 30.4222 7.90346 30.4222 9.34452C30.4222 10.7856 29.3489 11.919 27.9941 11.919C26.6393 11.919 25.566 10.7856 25.566 9.34452C25.566 7.90346 26.6393 6.77001 27.9941 6.77001ZM9.0059 11.6738C4.04931 11.6738 0 15.8821 0 21.0865V28.5376C3.27041e-05 28.8844 0.129983 29.217 0.361271 29.4622C0.592559 29.7074 0.906243 29.8452 1.23333 29.8452H27.1076C27.2711 29.8477 27.4333 29.8157 27.585 29.7511C27.7367 29.6864 27.8747 29.5905 27.9911 29.4688C28.1075 29.3472 28.1999 29.2022 28.263 29.0423C28.3261 28.8824 28.3585 28.7109 28.3585 28.5376C28.3585 28.3643 28.3261 28.1927 28.263 28.0328C28.1999 27.8729 28.1075 27.7279 27.9911 27.6063C27.8747 27.4846 27.7367 27.3887 27.585 27.324C27.4333 27.2594 27.2711 27.2274 27.1076 27.2299H2.46667V21.0865C2.46667 17.3093 5.34951 14.2892 9.0059 14.2892C12.6623 14.2892 15.5451 17.3093 15.5451 21.0865V24.3148C15.5428 24.4881 15.573 24.6601 15.634 24.8209C15.6949 24.9817 15.7854 25.1281 15.9001 25.2515C16.0149 25.3749 16.1516 25.4729 16.3024 25.5398C16.4532 25.6067 16.615 25.6411 16.7785 25.6411C16.9419 25.6411 17.1037 25.6067 17.2545 25.5398C17.4053 25.4729 17.542 25.3749 17.6568 25.2515C17.7716 25.1281 17.862 24.9817 17.923 24.8209C17.9839 24.6601 18.0141 24.4881 18.0118 24.3148V21.0865C18.0118 15.8821 13.9625 11.6738 9.0059 11.6738ZM27.9941 15.8148C23.3713 15.8148 19.5329 19.4656 19.0396 24.1922C19.0219 24.3631 19.0361 24.5359 19.0813 24.7009C19.1266 24.866 19.2021 25.0199 19.3035 25.154C19.4049 25.2881 19.5303 25.3997 19.6723 25.4824C19.8144 25.5651 19.9705 25.6174 20.1316 25.6362C20.2927 25.6549 20.4558 25.6399 20.6114 25.5919C20.767 25.5438 20.9122 25.4638 21.0387 25.3563C21.1651 25.2487 21.2704 25.1159 21.3484 24.9652C21.4264 24.8146 21.4757 24.6491 21.4934 24.4783C21.8489 21.0724 24.5839 18.4302 27.9941 18.4302C31.6505 18.4302 34.5333 21.4503 34.5333 25.2275V31.3845H20.2215C20.0581 31.382 19.8958 31.4141 19.7442 31.4787C19.5925 31.5433 19.4545 31.6392 19.3381 31.7609C19.2217 31.8826 19.1293 32.0276 19.0662 32.1874C19.0031 32.3473 18.9706 32.5189 18.9706 32.6922C18.9706 32.8655 19.0031 33.0371 19.0662 33.1969C19.1293 33.3568 19.2217 33.5018 19.3381 33.6235C19.4545 33.7451 19.5925 33.8411 19.7442 33.9057C19.8958 33.9703 20.0581 34.0023 20.2215 33.9999H35.7667C36.0938 33.9998 36.4074 33.862 36.6387 33.6168C36.87 33.3716 37 33.039 37 32.6922V25.2275C37 20.0231 32.9507 15.8148 27.9941 15.8148Z" fill="white"/>
</svg>
