<svg width="124" height="124" viewBox="0 0 124 124" fill="none" xmlns="http://www.w3.org/2000/svg">
<rect width="124" height="124" fill="white"/>
<path d="M38.5 84H28C20.8203 84 15 78.1797 15 71V55C15 47.8203 20.8203 42 28 42H96C103.18 42 109 47.8203 109 55V71C109 78.1797 103.18 84 96 84H85.5" stroke="#161616" stroke-width="4" stroke-linecap="round"/>
<path d="M50.1819 66.8104L78.7087 73.105C79.8903 73.3602 80.9031 74.1258 81.4939 75.2316C81.8315 75.827 82.0003 76.5075 82.0003 77.2731C82.0003 77.6984 81.9159 78.0386 81.8315 78.4639C81.4939 79.5697 80.8187 80.4204 79.8059 81.0158L73.3916 84.5884C73.3072 84.5884 73.2228 84.6735 73.2228 84.7585C72.9696 85.0137 72.9696 85.2689 72.9696 85.354C72.9696 85.5241 72.9696 85.7793 73.2228 85.9494L79.2151 91.9888C79.9747 92.7544 80.4811 93.8602 80.4811 94.966C80.4811 96.0718 80.0591 97.1776 79.2151 97.9432L76.008 101.176C75.2484 101.941 74.1512 102.451 73.054 102.451C71.9568 102.451 70.8596 102.026 70.1 101.176L64.1077 95.1361C64.0233 95.0511 64.0233 95.0511 63.9389 94.966C63.6857 94.7959 63.4325 94.8809 63.2637 94.8809C63.0949 94.8809 62.9261 95.0511 62.7573 95.3063L59.2126 101.771C58.6218 102.877 57.609 103.642 56.4274 103.898C54.1486 104.408 51.8699 102.962 51.4479 100.665L45.2868 71.9992C45.118 71.4038 45.118 70.8083 45.2868 70.2129C45.7087 67.8312 47.9031 66.3851 50.1819 66.8104Z" fill="#161616"/>
<rect x="58" y="34" width="16" height="4" rx="2" transform="rotate(-90 58 34)" fill="#161616"/>
<rect x="73.2676" y="31.9282" width="16" height="4" rx="2" transform="rotate(-60 73.2676 31.9282)" fill="#161616"/>
<rect x="43.2676" y="33.9282" width="16" height="4" rx="2" transform="rotate(-120 43.2676 33.9282)" fill="#161616"/>
</svg>
